<?xml version="1.0" standalone="no"?>
<!DOCTYPE svg PUBLIC "-//W3C//DTD SVG 20010904//EN"
 "http://www.w3.org/TR/2001/REC-SVG-20010904/DTD/svg10.dtd">
<svg version="1.0" xmlns="http://www.w3.org/2000/svg"
 viewBox="0 0 300.000000 71.000000"
>
<metadata>
Created by potrace 1.10, written by Peter Selinger 2001-2011
</metadata>
<g transform="translate(0.000000,71.000000) scale(0.100000,-0.100000)"
fill="#ac8f64" stroke="none">
<path d="M366 656 c-7 -29 3 -86 15 -86 5 0 9 25 9 55 0 57 -13 74 -24 31z"/>
<path d="M263 623 c-19 -7 -16 -50 4 -61 15 -9 13 -14 -15 -46 -33 -38 -48
-76 -39 -98 3 -7 6 -3 6 10 2 48 69 132 106 132 13 0 25 21 25 46 0 8 -4 14
-10 14 -5 0 -9 -10 -7 -22 2 -20 -3 -23 -33 -23 -24 0 -35 5 -35 15 0 8 8 14
18 14 10 -1 16 3 14 9 -4 13 -18 17 -34 10z"/>
<path d="M460 615 c-11 -13 -9 -15 11 -13 16 2 24 -2 24 -12 0 -19 -51 -26
-71 -9 -12 10 -13 9 -8 -5 3 -9 12 -16 20 -16 7 0 30 -14 51 -32 l38 -32 -28
31 c-27 29 -27 31 -8 36 23 6 28 36 9 55 -16 16 -23 15 -38 -3z"/>
<path d="M166 545 c-43 -43 -41 -142 3 -196 l19 -24 -31 -10 c-17 -5 -32 -16
-35 -23 -3 -11 0 -12 18 -2 12 7 35 10 51 8 35 -5 36 1 4 48 -26 38 -33 74
-15 74 6 0 10 5 10 11 0 6 -9 8 -20 4 -19 -6 -20 -3 -14 22 7 32 45 67 55 51
4 -5 9 -2 13 7 7 20 -10 45 -30 45 -7 0 -20 -7 -28 -15z"/>
<path d="M540 545 c-7 -8 -9 -23 -6 -32 5 -13 9 -14 15 -5 11 17 51 -23 51
-51 0 -38 -19 -92 -45 -127 -27 -37 -27 -47 2 -32 13 7 28 6 50 -3 28 -12 31
-12 26 1 -3 8 -18 17 -33 21 l-28 5 24 42 c31 54 33 132 3 170 -23 29 -41 33
-59 11z"/>
<path d="M303 530 c-113 -68 -87 -233 42 -269 75 -20 166 37 181 113 9 53 -21
123 -65 153 -43 29 -113 31 -158 3z m67 -50 c0 -5 -4 -10 -10 -10 -5 0 -10
-12 -10 -27 l0 -26 25 23 c14 13 23 30 21 37 -4 9 4 13 24 13 17 0 30 -4 30
-10 0 -5 -6 -10 -13 -10 -13 0 -57 -44 -57 -56 0 -12 56 -74 68 -74 6 0 12 -4
12 -10 0 -5 -11 -10 -24 -10 -16 0 -31 12 -47 35 -28 41 -39 44 -39 10 0 -14
5 -25 10 -25 6 0 10 -4 10 -10 0 -5 -17 -10 -37 -10 -29 0 -34 3 -25 12 16 16
16 130 0 146 -9 9 -4 12 25 12 20 0 37 -4 37 -10z m121 -37 c12 -33 3 -93 -14
-93 -13 0 -57 48 -57 63 0 13 40 57 52 57 5 0 13 -12 19 -27z m-195 -29 c0
-21 -2 -48 -4 -58 -5 -18 -6 -18 -19 -1 -22 31 -14 110 11 102 6 -2 11 -21 12
-43z"/>
<path d="M760 518 c0 -4 7 -8 15 -8 24 0 22 -158 -2 -176 -16 -12 -12 -13 32
-13 44 0 48 1 33 13 -12 9 -18 27 -18 52 l0 39 51 -53 c44 -45 56 -53 83 -50
l31 4 -25 11 c-14 6 -43 30 -64 52 l-40 41 34 35 c19 20 45 38 57 41 37 10 26
24 -18 24 -34 0 -39 -3 -35 -17 4 -12 -7 -28 -34 -51 l-40 -33 0 36 c0 22 6
38 15 41 29 11 15 21 -30 21 -25 0 -45 -4 -45 -9z"/>
<path d="M1000 518 c0 -5 5 -8 10 -8 6 0 10 -35 10 -85 0 -50 -4 -85 -10 -85
-5 0 -10 -4 -10 -10 0 -5 21 -10 48 -10 41 1 45 2 30 14 -12 8 -18 27 -18 50
l0 36 55 0 55 0 0 -36 c0 -23 -6 -42 -17 -50 -16 -12 -12 -13 32 -13 44 0 48
1 33 13 -24 18 -26 163 -3 172 29 11 15 21 -30 21 -45 0 -59 -10 -30 -21 9 -3
15 -19 15 -41 l0 -35 -55 0 -55 0 0 40 c0 22 5 40 10 40 6 0 10 3 10 8 0 4
-18 7 -40 7 -22 0 -40 -3 -40 -7z"/>
<path d="M1260 518 c0 -4 5 -8 10 -8 6 0 10 -35 10 -85 0 -50 -4 -85 -10 -85
-5 0 -10 -4 -10 -10 0 -6 33 -10 79 -10 72 0 80 2 86 21 9 28 -3 38 -19 16 -9
-11 -26 -17 -50 -17 l-36 0 0 85 c0 73 2 85 17 85 9 0 13 3 9 7 -10 10 -86 11
-86 1z"/>
<path d="M1450 519 c0 -4 7 -9 15 -13 22 -8 21 -143 -2 -168 -15 -17 -14 -18
33 -18 43 1 47 2 32 14 -25 18 -27 176 -3 176 8 0 15 4 15 8 0 5 -20 9 -45 9
-25 0 -45 -4 -45 -8z"/>
<path d="M1570 518 c0 -4 5 -8 10 -8 6 0 10 -34 10 -81 0 -66 -3 -84 -17 -95
-16 -12 -11 -13 35 -14 28 0 52 5 52 10 0 6 -7 10 -15 10 -10 0 -15 11 -15 35
0 31 3 35 25 35 14 0 28 -7 31 -15 11 -27 24 -16 24 20 0 32 -13 48 -22 27 -1
-5 -15 -12 -30 -16 -27 -6 -28 -5 -28 39 0 44 0 45 34 45 23 0 38 -7 50 -22
l16 -23 -2 30 -3 30 -77 0 c-43 1 -78 -3 -78 -7z"/>
<path d="M1760 518 c0 -4 5 -8 10 -8 6 0 10 -35 10 -85 0 -50 -4 -85 -10 -85
-5 0 -10 -4 -10 -10 0 -5 21 -10 48 -10 41 1 45 2 30 14 -25 18 -27 176 -3
176 8 0 15 4 15 8 0 5 -20 9 -45 9 -25 0 -45 -4 -45 -9z"/>
<path d="M1930 518 c0 -4 7 -8 15 -8 24 0 22 -158 -2 -176 -16 -12 -8 -13 55
-14 80 0 134 17 151 48 6 12 11 41 11 65 0 51 -16 70 -75 86 -45 11 -155 11
-155 -1z m153 -19 c50 -23 62 -95 22 -134 -17 -18 -35 -25 -64 -25 -22 0 -41
4 -43 10 -1 5 -2 43 0 85 l4 75 28 0 c16 0 40 -5 53 -11z"/>
<path d="M2190 522 c0 -2 7 -10 15 -18 10 -11 15 -36 15 -85 0 -53 -4 -71 -15
-75 -37 -14 -9 -24 69 -24 78 0 84 2 89 22 8 30 1 35 -21 15 -10 -10 -35 -17
-55 -17 -36 0 -37 1 -37 40 0 33 3 40 19 40 11 0 26 -7 35 -15 22 -22 26 -19
26 20 0 36 -13 47 -24 20 -3 -8 -17 -15 -31 -15 -23 0 -25 4 -25 40 0 39 1 40
34 40 25 0 39 -7 50 -22 19 -27 29 -19 20 16 -6 26 -7 26 -85 24 -44 -1 -79
-4 -79 -6z"/>
<path d="M2445 515 c-42 -22 -55 -43 -55 -88 0 -49 13 -73 50 -92 47 -24 150
-14 150 15 0 7 -6 8 -19 0 -35 -18 -88 -12 -118 14 -37 32 -39 99 -4 128 34
26 92 21 106 -9 13 -30 22 -29 27 2 6 31 1 35 -59 41 -33 4 -57 0 -78 -11z"/>
<path d="M2663 515 c-40 -17 -67 -67 -59 -110 10 -50 47 -78 111 -83 52 -4 56
-3 90 31 57 57 43 132 -31 163 -41 17 -70 17 -111 -1z m112 -30 c32 -31 35
-103 6 -129 -38 -35 -113 -17 -131 30 -36 94 58 167 125 99z"/>
<path d="M525 481 c4 -8 12 -39 16 -70 l8 -56 -3 58 c-1 32 -9 63 -16 70 -10
10 -11 9 -5 -2z"/>
<path d="M210 379 c0 -13 5 -31 10 -39 7 -11 8 -5 4 20 -8 43 -14 51 -14 19z"/>
<path d="M618 365 c-22 -29 -22 -35 -3 -35 8 0 20 -9 27 -20 15 -24 28 -26 28
-5 0 9 -11 21 -25 27 -28 13 -30 19 -13 36 6 6 10 14 7 16 -2 2 -12 -6 -21
-19z"/>
<path d="M130 363 c8 -18 8 -23 -3 -23 -19 0 -51 -36 -38 -44 5 -4 13 0 18 8
4 8 18 18 30 23 l22 8 -20 25 c-18 22 -19 23 -9 3z"/>
<path d="M162 257 c-27 -29 -28 -57 -3 -88 16 -20 23 -22 47 -14 16 6 30 18
32 28 3 16 1 17 -16 6 -47 -29 -80 21 -38 58 27 23 52 32 41 14 -3 -5 8 -9 25
-9 32 1 70 -26 70 -49 0 -7 -7 -13 -15 -13 -8 0 -15 -7 -15 -15 0 -8 9 -15 20
-15 23 0 26 15 17 75 -3 19 -62 44 -103 45 -30 0 -46 -6 -62 -23z"/>
<path d="M450 259 c-19 -11 -29 -19 -22 -19 10 0 10 -5 2 -20 -15 -28 -3 -60
21 -60 23 0 25 18 4 26 -38 15 6 68 55 66 17 0 28 3 25 8 -11 18 36 -4 50 -23
26 -38 -20 -78 -53 -45 -6 6 -14 9 -18 6 -8 -8 33 -48 49 -48 22 0 46 23 52
52 5 21 1 33 -19 52 -31 32 -92 33 -146 5z"/>
<path d="M770 237 c-27 -9 -35 -17 -35 -37 0 -19 6 -26 24 -28 14 -2 21 0 17
7 -10 16 31 51 59 51 18 0 23 -4 19 -15 -4 -8 -1 -15 5 -15 6 0 11 5 11 10 0
17 28 11 80 -15 50 -25 50 -25 71 -6 27 25 18 51 -16 51 -17 0 -25 -5 -25 -17
0 -15 2 -15 9 -4 5 8 16 11 26 7 10 -3 15 -9 11 -13 -13 -14 -52 -11 -91 7
-54 25 -123 32 -165 17z"/>
<path d="M1190 215 c0 -36 10 -42 44 -29 25 10 20 51 -6 58 -36 9 -38 8 -38
-29z m48 -3 c-5 -27 -28 -26 -28 2 0 19 4 24 15 19 9 -3 15 -12 13 -21z"/>
<path d="M1271 226 c-15 -27 -8 -46 17 -45 14 0 13 2 -3 9 -16 7 -16 9 -4 9
12 1 16 9 15 26 -1 31 -9 32 -25 1z"/>
<path d="M2234 215 c1 -46 16 -46 16 0 0 19 -4 35 -8 35 -5 0 -8 -16 -8 -35z"/>
<path d="M2695 237 c-22 -8 -50 -19 -62 -26 -17 -9 -28 -9 -44 0 -15 8 -19 8
-15 0 4 -6 2 -11 -3 -11 -6 0 -11 7 -11 15 0 17 36 21 43 5 3 -6 4 -5 3 2 -1
7 -12 14 -24 16 -31 5 -39 -25 -14 -49 21 -19 21 -19 67 5 65 35 130 44 156
20 11 -10 17 -24 15 -31 -4 -8 3 -13 18 -13 13 0 27 8 30 17 17 44 -82 75
-159 50z"/>
<path d="M359 231 c9 -6 11 -18 7 -38 -4 -16 -3 -40 3 -54 8 -21 10 -22 16 -7
4 10 5 36 3 58 -2 29 0 40 12 44 8 2 -1 4 -20 5 -23 0 -30 -2 -21 -8z"/>
<path d="M1504 226 c-7 -18 1 -46 14 -46 9 0 9 47 -1 56 -4 4 -9 -1 -13 -10z"/>
<path d="M1758 235 c-7 -7 3 -55 11 -55 8 0 7 47 -1 55 -2 3 -7 3 -10 0z"/>
<path d="M1314 215 c-7 -17 3 -35 19 -34 9 0 9 2 0 6 -15 5 -18 33 -4 33 6 0
17 -10 25 -21 16 -23 46 -20 46 5 0 21 -18 30 -35 16 -9 -7 -15 -8 -20 0 -9
14 -25 12 -31 -5z m76 -10 c0 -8 -4 -15 -10 -15 -5 0 -10 7 -10 15 0 8 5 15
10 15 6 0 10 -7 10 -15z"/>
<path d="M1415 222 c-9 -9 -5 -42 5 -42 6 0 10 7 10 15 0 8 7 15 15 15 9 0 12
-6 9 -15 -4 -11 0 -15 16 -15 16 0 21 5 18 22 -2 17 -10 23 -35 24 -18 1 -35
-1 -38 -4z"/>
<path d="M1574 215 c-7 -18 3 -35 21 -35 18 0 26 25 12 39 -15 15 -27 14 -33
-4z m26 -10 c0 -8 -4 -15 -10 -15 -5 0 -10 7 -10 15 0 8 5 15 10 15 6 0 10 -7
10 -15z"/>
<path d="M1631 230 c-2 -3 -4 -15 -5 -27 -2 -19 2 -23 25 -23 22 0 26 4 22 20
-3 11 -9 22 -13 25 -5 3 -6 -4 -3 -15 3 -11 1 -20 -5 -20 -6 0 -13 10 -15 23
-2 12 -5 20 -6 17z"/>
<path d="M1710 215 c-14 -17 -5 -35 18 -35 13 0 14 2 4 9 -11 7 -10 9 3 15 9
3 13 10 10 16 -9 14 -20 12 -35 -5z"/>
<path d="M1810 205 c0 -14 5 -25 10 -25 6 0 10 9 10 21 0 12 4 17 11 14 6 -4
8 -13 5 -21 -3 -8 -1 -14 4 -14 6 0 10 9 10 21 0 12 4 17 11 14 6 -4 8 -13 5
-21 -3 -8 -1 -14 5 -14 6 0 9 10 7 22 -2 18 -10 23 -40 25 -35 3 -38 1 -38
-22z"/>
<path d="M1939 228 c-12 -40 -8 -45 32 -45 26 0 36 3 27 8 -10 7 -10 9 0 9 6
0 12 7 12 15 0 19 -14 19 -30 1 -6 -8 -18 -12 -27 -9 -12 5 -12 7 -1 14 10 7
10 9 1 9 -7 0 -13 -1 -14 -2z"/>
<path d="M2065 220 c4 -6 -1 -7 -10 -3 -13 4 -16 1 -13 -13 2 -10 12 -20 23
-22 17 -3 17 -1 5 7 -10 7 -11 11 -2 11 6 0 12 7 12 15 0 8 -5 15 -11 15 -5 0
-7 -4 -4 -10z"/>
<path d="M2099 228 c-5 -21 -4 -48 3 -48 4 0 8 9 8 21 0 12 4 17 11 14 6 -4 8
-13 5 -21 -3 -8 1 -14 9 -14 20 0 3 44 -19 48 -9 2 -16 2 -17 0z"/>
<path d="M2178 194 c-3 -25 0 -34 11 -34 8 0 11 3 8 7 -4 3 2 13 14 21 15 10
18 17 10 25 -23 23 -39 15 -43 -19z"/>
<path d="M2268 223 c-9 -18 -2 -38 15 -41 14 -3 18 1 15 19 -3 23 -23 37 -30
22z"/>
<path d="M2314 215 c-8 -19 3 -35 24 -35 15 1 15 2 -1 11 -9 6 -15 15 -12 20
4 5 11 7 16 4 5 -4 9 -1 9 4 0 16 -30 13 -36 -4z"/>
<path d="M2364 216 c-8 -20 3 -36 24 -35 14 0 13 2 -3 9 -18 8 -18 9 -2 9 10
1 17 6 15 13 -7 19 -27 21 -34 4z"/>
<path d="M1540 200 c0 -11 5 -20 10 -20 6 0 10 9 10 20 0 11 -4 20 -10 20 -5
0 -10 -9 -10 -20z"/>
<path d="M1903 200 c-1 -11 2 -20 8 -20 5 0 9 9 9 20 0 11 -4 20 -8 20 -4 0
-8 -9 -9 -20z"/>
<path d="M40 125 c0 -12 12 -15 53 -13 l52 1 -45 7 c-32 5 -12 7 70 8 71 0
105 -3 90 -8 -24 -8 -23 -8 8 -9 22 -1 32 4 32 14 0 13 -21 15 -130 15 -109 0
-130 -2 -130 -15z"/>
<path d="M460 125 c0 -10 10 -15 33 -14 30 1 31 1 7 9 -15 5 19 8 90 7 85 0
102 -2 65 -7 l-50 -7 56 -1 c42 -2 58 2 63 13 5 13 -14 15 -129 15 -113 0
-135 -2 -135 -15z"/>
</g>
</svg>
